<svg id="visual" viewBox="0 0 540 960" width="540" height="960" xmlns="http://www.w3.org/2000/svg" xmlns:xlink="http://www.w3.org/1999/xlink" version="1.1"><rect x="0" y="0" width="540" height="960" fill="#001220"></rect><path d="M0 230L10 229C20 228 40 226 60 225.8C80 225.7 100 227.3 120 230.7C140 234 160 239 180 243.5C200 248 220 252 240 250.5C260 249 280 242 300 230.3C320 218.7 340 202.3 360 194.2C380 186 400 186 420 193.8C440 201.7 460 217.3 480 228C500 238.7 520 244.3 530 247.2L540 250L540 0L530 0C520 0 500 0 480 0C460 0 440 0 420 0C400 0 380 0 360 0C340 0 320 0 300 0C280 0 260 0 240 0C220 0 200 0 180 0C160 0 140 0 120 0C100 0 80 0 60 0C40 0 20 0 10 0L0 0Z" fill="#ff8400"></path><path d="M0 182L10 176.7C20 171.3 40 160.7 60 160.5C80 160.3 100 170.7 120 169C140 167.3 160 153.7 180 154C200 154.3 220 168.7 240 171.7C260 174.7 280 166.3 300 167.5C320 168.7 340 179.3 360 176.5C380 173.7 400 157.3 420 153.3C440 149.3 460 157.7 480 166.5C500 175.3 520 184.7 530 189.3L540 194L540 0L530 0C520 0 500 0 480 0C460 0 440 0 420 0C400 0 380 0 360 0C340 0 320 0 300 0C280 0 260 0 240 0C220 0 200 0 180 0C160 0 140 0 120 0C100 0 80 0 60 0C40 0 20 0 10 0L0 0Z" fill="#ffa751"></path><path d="M0 123L10 123.7C20 124.3 40 125.7 60 120C80 114.3 100 101.7 120 100.2C140 98.7 160 108.3 180 111.3C200 114.3 220 110.7 240 108.5C260 106.3 280 105.7 300 108.8C320 112 340 119 360 123.3C380 127.7 400 129.3 420 132.2C440 135 460 139 480 135C500 131 520 119 530 113L540 107L540 0L530 0C520 0 500 0 480 0C460 0 440 0 420 0C400 0 380 0 360 0C340 0 320 0 300 0C280 0 260 0 240 0C220 0 200 0 180 0C160 0 140 0 120 0C100 0 80 0 60 0C40 0 20 0 10 0L0 0Z" fill="#ffc78d"></path><path d="M0 77L10 68.8C20 60.7 40 44.3 60 38.7C80 33 100 38 120 37.5C140 37 160 31 180 37.3C200 43.7 220 62.3 240 62.5C260 62.7 280 44.3 300 35.5C320 26.7 340 27.3 360 37C380 46.7 400 65.3 420 75.8C440 86.3 460 88.7 480 80.7C500 72.7 520 54.3 530 45.2L540 36L540 0L530 0C520 0 500 0 480 0C460 0 440 0 420 0C400 0 380 0 360 0C340 0 320 0 300 0C280 0 260 0 240 0C220 0 200 0 180 0C160 0 140 0 120 0C100 0 80 0 60 0C40 0 20 0 10 0L0 0Z" fill="#ffe5ca"></path></svg>