<svg id="visual" viewBox="0 0 960 540" width="960" height="540" xmlns="http://www.w3.org/2000/svg" xmlns:xlink="http://www.w3.org/1999/xlink" version="1.1"><rect x="0" y="0" width="960" height="540" fill="#001220"></rect><path d="M0 129L17.8 128.3C35.7 127.7 71.3 126.3 106.8 126.2C142.3 126 177.7 127 213.2 129C248.7 131 284.3 134 320 136.5C355.7 139 391.3 141 426.8 140.2C462.3 139.3 497.7 135.7 533.2 129.2C568.7 122.7 604.3 113.3 640 108.7C675.7 104 711.3 104 746.8 108.5C782.3 113 817.7 122 853.2 128C888.7 134 924.3 137 942.2 138.5L960 140L960 0L942.2 0C924.3 0 888.7 0 853.2 0C817.7 0 782.3 0 746.8 0C711.3 0 675.7 0 640 0C604.3 0 568.7 0 533.2 0C497.7 0 462.3 0 426.8 0C391.3 0 355.7 0 320 0C284.3 0 248.7 0 213.2 0C177.7 0 142.3 0 106.8 0C71.3 0 35.7 0 17.8 0L0 0Z" fill="#ff8400"></path><path d="M0 102L17.8 99C35.7 96 71.3 90 106.8 90C142.3 90 177.7 96 213.2 95C248.7 94 284.3 86 320 86.2C355.7 86.3 391.3 94.7 426.8 96.3C462.3 98 497.7 93 533.2 93.5C568.7 94 604.3 100 640 98.5C675.7 97 711.3 88 746.8 85.8C782.3 83.7 817.7 88.3 853.2 93.3C888.7 98.3 924.3 103.7 942.2 106.3L960 109L960 0L942.2 0C924.3 0 888.7 0 853.2 0C817.7 0 782.3 0 746.8 0C711.3 0 675.7 0 640 0C604.3 0 568.7 0 533.2 0C497.7 0 462.3 0 426.8 0C391.3 0 355.7 0 320 0C284.3 0 248.7 0 213.2 0C177.7 0 142.3 0 106.8 0C71.3 0 35.7 0 17.8 0L0 0Z" fill="#ffa751"></path><path d="M0 69L17.8 69.3C35.7 69.7 71.3 70.3 106.8 67.2C142.3 64 177.7 57 213.2 56.2C248.7 55.3 284.3 60.7 320 62.3C355.7 64 391.3 62 426.8 60.8C462.3 59.7 497.7 59.3 533.2 61.2C568.7 63 604.3 67 640 69.3C675.7 71.7 711.3 72.3 746.8 73.8C782.3 75.3 817.7 77.7 853.2 75.5C888.7 73.3 924.3 66.7 942.2 63.3L960 60L960 0L942.2 0C924.3 0 888.7 0 853.2 0C817.7 0 782.3 0 746.8 0C711.3 0 675.7 0 640 0C604.3 0 568.7 0 533.2 0C497.7 0 462.3 0 426.8 0C391.3 0 355.7 0 320 0C284.3 0 248.7 0 213.2 0C177.7 0 142.3 0 106.8 0C71.3 0 35.7 0 17.8 0L0 0Z" fill="#ffc78d"></path><path d="M0 43L17.8 38.5C35.7 34 71.3 25 106.8 21.8C142.3 18.7 177.7 21.3 213.2 20.8C248.7 20.3 284.3 16.7 320 20.2C355.7 23.7 391.3 34.3 426.8 34.5C462.3 34.7 497.7 24.3 533.2 19.5C568.7 14.7 604.3 15.3 640 20.8C675.7 26.3 711.3 36.7 746.8 42.3C782.3 48 817.7 49 853.2 44.5C888.7 40 924.3 30 942.2 25L960 20L960 0L942.2 0C924.3 0 888.7 0 853.2 0C817.7 0 782.3 0 746.8 0C711.3 0 675.7 0 640 0C604.3 0 568.7 0 533.2 0C497.7 0 462.3 0 426.8 0C391.3 0 355.7 0 320 0C284.3 0 248.7 0 213.2 0C177.7 0 142.3 0 106.8 0C71.3 0 35.7 0 17.8 0L0 0Z" fill="#ffe5ca"></path></svg>